# MagicaVoxel @ Ephtracy

# group
o 

# material
mtllib RLeg.mtl
usemtl palette

# normals
vn -1 0 0
vn 1 0 0
vn 0 0 1
vn 0 0 -1
vn 0 -1 0
vn 0 1 0

# texcoords
vt 0.564453 0.5
vt 0.982422 0.5

# verts
v -2.7 -5.7 -2.8
v -2.7 -5.7 -2.9
v -2.7 -4.1 -2.8
v -2.7 -4.1 -2.9
v -2.6 -5.8 -2.8
v -2.6 -5.8 -2.9
v -2.6 -5.7 -2.7
v -2.6 -5.7 -2.8
v -2.6 -5.7 -2.9
v -2.6 -5.7 -3
v -2.6 -4.1 -2.7
v -2.6 -4.1 -2.8
v -2.6 -4.1 -2.9
v -2.6 -4.1 -3
v -2.6 -4 -2.8
v -2.6 -4 -2.9
v -2.5 -5.8 -2.7
v -2.5 -5.8 -2.8
v -2.5 -5.8 -2.9
v -2.5 -5.8 -3
v -2.5 -5.7 -2.6
v -2.5 -5.7 -2.7
v -2.5 -5.7 -2.8
v -2.5 -5.7 -2.9
v -2.5 -5.7 -3
v -2.5 -5.7 -3.1
v -2.5 -4.1 -2.6
v -2.5 -4.1 -2.7
v -2.5 -4.1 -2.8
v -2.5 -4.1 -2.9
v -2.5 -4.1 -3
v -2.5 -4.1 -3.1
v -2.5 -4 -2.8
v -2.5 -4 -2.9
v -2.5 -3.9 -2.7
v -2.5 -3.9 -3
v -2.4 -6 -2.8
v -2.4 -6 -2.9
v -2.4 -5.9 -2.7
v -2.4 -5.9 -2.8
v -2.4 -5.9 -2.9
v -2.4 -5.9 -3
v -2.4 -5.8 -2.6
v -2.4 -5.8 -2.7
v -2.4 -5.8 -3
v -2.4 -5.8 -3.1
v -2.4 -5.7 -2.6
v -2.4 -5.7 -2.7
v -2.4 -5.7 -3
v -2.4 -5.7 -3.1
v -2.3 -6 -2.7
v -2.3 -6 -2.8
v -2.3 -6 -2.9
v -2.3 -6 -3
v -2.3 -5.9 -2.7
v -2.3 -5.9 -2.8
v -2.3 -5.9 -2.9
v -2.3 -5.9 -3
v -2.4 -4 -2.7
v -2.4 -4 -2.8
v -2.4 -4 -2.9
v -2.4 -4 -3
v -2.4 -3.9 -2.7
v -2.4 -3.9 -2.8
v -2.4 -3.9 -2.9
v -2.4 -3.9 -3
v -2.3 -4.2 -2.6
v -2.3 -4.2 -2.7
v -2.3 -4.2 -3
v -2.3 -4.2 -3.1
v -2.3 -4.1 -2.6
v -2.3 -4.1 -2.7
v -2.3 -4.1 -3
v -2.3 -4.1 -3.1
v -2.3 -4 -2.7
v -2.3 -4 -2.8
v -2.3 -4 -2.9
v -2.3 -4 -3
v -2.3 -3.9 -2.8
v -2.3 -3.9 -2.9
v -2.2 -6 -2.7
v -2.2 -6 -3
v -2.2 -5.8 -2.6
v -2.2 -5.8 -2.7
v -2.2 -5.8 -3
v -2.2 -5.8 -3.1
v -2.2 -4.2 -2.6
v -2.2 -4.2 -2.7
v -2.2 -4.2 -3
v -2.2 -4.2 -3.1
v -2.2 -4.1 -2.7
v -2.2 -4.1 -3
v -2.5 -5.7 -2.6
v -2.5 -4.1 -2.6
v -2.4 -5.8 -2.6
v -2.4 -5.7 -2.6
v -2.3 -4.2 -2.6
v -2.3 -4.1 -2.6
v -2.2 -5.8 -2.6
v -2.2 -4.2 -2.6
v -2.6 -5.7 -2.7
v -2.6 -4.1 -2.7
v -2.5 -5.8 -2.7
v -2.5 -5.7 -2.7
v -2.5 -4.1 -2.7
v -2.5 -3.9 -2.7
v -2.4 -5.9 -2.7
v -2.4 -5.8 -2.7
v -2.4 -5.7 -2.7
v -2.4 -4 -2.7
v -2.4 -3.9 -2.7
v -2.3 -6 -2.7
v -2.3 -5.9 -2.7
v -2.3 -4.2 -2.7
v -2.3 -4.1 -2.7
v -2.3 -4 -2.7
v -2.2 -6 -2.7
v -2.2 -5.8 -2.7
v -2.2 -4.2 -2.7
v -2.2 -4.1 -2.7
v -2.7 -5.7 -2.8
v -2.7 -4.1 -2.8
v -2.6 -5.8 -2.8
v -2.6 -5.7 -2.8
v -2.6 -4.1 -2.8
v -2.6 -4 -2.8
v -2.5 -5.8 -2.8
v -2.5 -5.7 -2.8
v -2.5 -4.1 -2.8
v -2.5 -4 -2.8
v -2.4 -6 -2.8
v -2.4 -5.9 -2.8
v -2.4 -4 -2.8
v -2.4 -3.9 -2.8
v -2.3 -6 -2.8
v -2.3 -5.9 -2.8
v -2.3 -4 -2.8
v -2.3 -3.9 -2.8
v -2.7 -5.7 -2.9
v -2.7 -4.1 -2.9
v -2.6 -5.8 -2.9
v -2.6 -5.7 -2.9
v -2.6 -4.1 -2.9
v -2.6 -4 -2.9
v -2.5 -5.8 -2.9
v -2.5 -5.7 -2.9
v -2.5 -4.1 -2.9
v -2.5 -4 -2.9
v -2.4 -6 -2.9
v -2.4 -5.9 -2.9
v -2.4 -4 -2.9
v -2.4 -3.9 -2.9
v -2.3 -6 -2.9
v -2.3 -5.9 -2.9
v -2.3 -4 -2.9
v -2.3 -3.9 -2.9
v -2.6 -5.7 -3
v -2.6 -4.1 -3
v -2.5 -5.8 -3
v -2.5 -5.7 -3
v -2.5 -4.1 -3
v -2.5 -3.9 -3
v -2.4 -5.9 -3
v -2.4 -5.8 -3
v -2.4 -5.7 -3
v -2.4 -4 -3
v -2.4 -3.9 -3
v -2.3 -6 -3
v -2.3 -5.9 -3
v -2.3 -4.2 -3
v -2.3 -4.1 -3
v -2.3 -4 -3
v -2.2 -6 -3
v -2.2 -5.8 -3
v -2.2 -4.2 -3
v -2.2 -4.1 -3
v -2.5 -5.7 -3.1
v -2.5 -4.1 -3.1
v -2.4 -5.8 -3.1
v -2.4 -5.7 -3.1
v -2.3 -4.2 -3.1
v -2.3 -4.1 -3.1
v -2.2 -5.8 -3.1
v -2.2 -4.2 -3.1
v -2.3 -6 -2.7
v -2.2 -6 -2.7
v -2.4 -6 -2.8
v -2.3 -6 -2.8
v -2.4 -6 -2.9
v -2.3 -6 -2.9
v -2.3 -6 -3
v -2.2 -6 -3
v -2.4 -5.9 -2.7
v -2.3 -5.9 -2.7
v -2.4 -5.9 -2.8
v -2.3 -5.9 -2.8
v -2.4 -5.9 -2.9
v -2.3 -5.9 -2.9
v -2.4 -5.9 -3
v -2.3 -5.9 -3
v -2.4 -5.8 -2.6
v -2.2 -5.8 -2.6
v -2.5 -5.8 -2.7
v -2.4 -5.8 -2.7
v -2.2 -5.8 -2.7
v -2.6 -5.8 -2.8
v -2.5 -5.8 -2.8
v -2.6 -5.8 -2.9
v -2.5 -5.8 -2.9
v -2.5 -5.8 -3
v -2.4 -5.8 -3
v -2.2 -5.8 -3
v -2.4 -5.8 -3.1
v -2.2 -5.8 -3.1
v -2.5 -5.7 -2.6
v -2.4 -5.7 -2.6
v -2.6 -5.7 -2.7
v -2.5 -5.7 -2.7
v -2.4 -5.7 -2.7
v -2.7 -5.7 -2.8
v -2.6 -5.7 -2.8
v -2.5 -5.7 -2.8
v -2.7 -5.7 -2.9
v -2.6 -5.7 -2.9
v -2.5 -5.7 -2.9
v -2.6 -5.7 -3
v -2.5 -5.7 -3
v -2.4 -5.7 -3
v -2.5 -5.7 -3.1
v -2.4 -5.7 -3.1
v -2.3 -4.2 -2.6
v -2.2 -4.2 -2.6
v -2.3 -4.2 -2.7
v -2.2 -4.2 -2.7
v -2.3 -4.2 -3
v -2.2 -4.2 -3
v -2.3 -4.2 -3.1
v -2.2 -4.2 -3.1
v -2.5 -4.1 -2.6
v -2.3 -4.1 -2.6
v -2.6 -4.1 -2.7
v -2.5 -4.1 -2.7
v -2.3 -4.1 -2.7
v -2.2 -4.1 -2.7
v -2.7 -4.1 -2.8
v -2.6 -4.1 -2.8
v -2.5 -4.1 -2.8
v -2.7 -4.1 -2.9
v -2.6 -4.1 -2.9
v -2.5 -4.1 -2.9
v -2.6 -4.1 -3
v -2.5 -4.1 -3
v -2.3 -4.1 -3
v -2.2 -4.1 -3
v -2.5 -4.1 -3.1
v -2.3 -4.1 -3.1
v -2.4 -4 -2.7
v -2.3 -4 -2.7
v -2.6 -4 -2.8
v -2.5 -4 -2.8
v -2.4 -4 -2.8
v -2.3 -4 -2.8
v -2.6 -4 -2.9
v -2.5 -4 -2.9
v -2.4 -4 -2.9
v -2.3 -4 -2.9
v -2.4 -4 -3
v -2.3 -4 -3
v -2.5 -3.9 -2.7
v -2.4 -3.9 -2.7
v -2.4 -3.9 -2.8
v -2.3 -3.9 -2.8
v -2.4 -3.9 -2.9
v -2.3 -3.9 -2.9
v -2.5 -3.9 -3
v -2.4 -3.9 -3

# faces
f 3/2/1 2/2/1 1/2/1
f 4/2/1 2/2/1 3/2/1
f 8/2/1 6/2/1 5/2/1
f 9/2/1 6/2/1 8/2/1
f 11/2/1 8/2/1 7/2/1
f 12/2/1 8/2/1 11/2/1
f 13/2/1 10/2/1 9/2/1
f 14/2/1 10/2/1 13/2/1
f 15/2/1 13/2/1 12/2/1
f 16/2/1 13/2/1 15/2/1
f 22/2/1 18/2/1 17/2/1
f 23/2/1 18/2/1 22/2/1
f 24/2/1 20/2/1 19/2/1
f 25/2/1 20/2/1 24/2/1
f 27/2/1 22/2/1 21/2/1
f 28/2/1 22/2/1 27/2/1
f 31/2/1 26/2/1 25/2/1
f 32/2/1 26/2/1 31/2/1
f 33/2/1 29/2/1 28/2/1
f 34/2/1 31/2/1 30/2/1
f 35/2/1 33/2/1 28/2/1
f 35/2/1 34/2/1 33/2/1
f 36/2/1 31/2/1 34/2/1
f 36/2/1 34/2/1 35/2/1
f 40/1/1 38/1/1 37/1/1
f 41/1/1 38/1/1 40/1/1
f 44/2/1 40/2/1 39/2/1
f 44/2/1 42/2/1 41/2/1
f 44/2/1 41/2/1 40/2/1
f 45/2/1 42/2/1 44/2/1
f 47/2/1 44/2/1 43/2/1
f 48/2/1 44/2/1 47/2/1
f 49/2/1 46/2/1 45/2/1
f 50/2/1 46/2/1 49/2/1
f 55/2/1 52/2/1 51/2/1
f 56/2/1 52/2/1 55/2/1
f 57/2/1 54/2/1 53/2/1
f 58/2/1 54/2/1 57/2/1
f 59/2/2 60/2/2 63/2/2
f 63/2/2 60/2/2 64/2/2
f 61/2/2 62/2/2 65/2/2
f 65/2/2 62/2/2 66/2/2
f 67/2/2 68/2/2 71/2/2
f 71/2/2 68/2/2 72/2/2
f 69/2/2 70/2/2 73/2/2
f 73/2/2 70/2/2 74/2/2
f 72/2/2 73/2/2 75/2/2
f 75/2/2 73/2/2 76/2/2
f 76/2/2 73/2/2 77/2/2
f 77/2/2 73/2/2 78/2/2
f 76/1/2 77/1/2 79/1/2
f 79/1/2 77/1/2 80/1/2
f 81/2/2 82/2/2 84/2/2
f 84/2/2 82/2/2 85/2/2
f 83/2/2 84/2/2 87/2/2
f 85/2/2 86/2/2 87/2/2
f 84/2/2 85/2/2 87/2/2
f 87/2/2 86/2/2 88/2/2
f 88/2/2 86/2/2 89/2/2
f 89/2/2 86/2/2 90/2/2
f 88/2/2 89/2/2 91/2/2
f 91/2/2 89/2/2 92/2/2
f 96/2/3 94/2/3 93/2/3
f 97/2/3 94/2/3 96/2/3
f 97/2/3 96/2/3 95/2/3
f 98/2/3 94/2/3 97/2/3
f 99/2/3 97/2/3 95/2/3
f 100/2/3 97/2/3 99/2/3
f 104/2/3 102/2/3 101/2/3
f 105/2/3 102/2/3 104/2/3
f 108/2/3 104/2/3 103/2/3
f 109/2/3 104/2/3 108/2/3
f 110/2/3 106/2/3 105/2/3
f 111/2/3 106/2/3 110/2/3
f 113/2/3 108/2/3 107/2/3
f 115/2/3 110/2/3 105/2/3
f 116/2/3 110/2/3 115/2/3
f 117/2/3 113/2/3 112/2/3
f 118/2/3 108/2/3 113/2/3
f 118/2/3 113/2/3 117/2/3
f 119/2/3 115/2/3 114/2/3
f 120/2/3 115/2/3 119/2/3
f 124/2/3 122/2/3 121/2/3
f 125/2/3 122/2/3 124/2/3
f 127/2/3 124/2/3 123/2/3
f 128/2/3 124/2/3 127/2/3
f 129/2/3 126/2/3 125/2/3
f 130/2/3 126/2/3 129/2/3
f 135/1/3 132/1/3 131/1/3
f 136/1/3 132/1/3 135/1/3
f 137/1/3 134/1/3 133/1/3
f 138/1/3 134/1/3 137/1/3
f 139/2/4 140/2/4 142/2/4
f 142/2/4 140/2/4 143/2/4
f 141/2/4 142/2/4 145/2/4
f 145/2/4 142/2/4 146/2/4
f 143/2/4 144/2/4 147/2/4
f 147/2/4 144/2/4 148/2/4
f 149/1/4 150/1/4 153/1/4
f 153/1/4 150/1/4 154/1/4
f 151/1/4 152/1/4 155/1/4
f 155/1/4 152/1/4 156/1/4
f 157/2/4 158/2/4 160/2/4
f 160/2/4 158/2/4 161/2/4
f 159/2/4 160/2/4 164/2/4
f 164/2/4 160/2/4 165/2/4
f 161/2/4 162/2/4 166/2/4
f 166/2/4 162/2/4 167/2/4
f 163/2/4 164/2/4 169/2/4
f 161/2/4 166/2/4 171/2/4
f 171/2/4 166/2/4 172/2/4
f 168/2/4 169/2/4 173/2/4
f 169/2/4 164/2/4 174/2/4
f 173/2/4 169/2/4 174/2/4
f 170/2/4 171/2/4 175/2/4
f 175/2/4 171/2/4 176/2/4
f 177/2/4 178/2/4 180/2/4
f 180/2/4 178/2/4 181/2/4
f 179/2/4 180/2/4 181/2/4
f 181/2/4 178/2/4 182/2/4
f 179/2/4 181/2/4 183/2/4
f 183/2/4 181/2/4 184/2/4
f 188/2/5 186/2/5 185/2/5
f 189/1/5 188/1/5 187/1/5
f 190/2/5 186/2/5 188/2/5
f 190/1/5 188/1/5 189/1/5
f 191/2/5 186/2/5 190/2/5
f 192/2/5 186/2/5 191/2/5
f 195/2/5 194/2/5 193/2/5
f 196/2/5 194/2/5 195/2/5
f 199/2/5 198/2/5 197/2/5
f 200/2/5 198/2/5 199/2/5
f 204/2/5 202/2/5 201/2/5
f 205/2/5 202/2/5 204/2/5
f 207/2/5 204/2/5 203/2/5
f 208/2/5 207/2/5 206/2/5
f 209/2/5 204/2/5 207/2/5
f 209/2/5 207/2/5 208/2/5
f 210/2/5 204/2/5 209/2/5
f 211/2/5 204/2/5 210/2/5
f 213/2/5 212/2/5 211/2/5
f 214/2/5 212/2/5 213/2/5
f 218/2/5 216/2/5 215/2/5
f 219/2/5 216/2/5 218/2/5
f 221/2/5 218/2/5 217/2/5
f 222/2/5 218/2/5 221/2/5
f 223/2/5 221/2/5 220/2/5
f 224/2/5 221/2/5 223/2/5
f 226/2/5 225/2/5 224/2/5
f 227/2/5 225/2/5 226/2/5
f 229/2/5 228/2/5 227/2/5
f 230/2/5 228/2/5 229/2/5
f 231/2/6 232/2/6 233/2/6
f 233/2/6 232/2/6 234/2/6
f 235/2/6 236/2/6 237/2/6
f 237/2/6 236/2/6 238/2/6
f 239/2/6 240/2/6 242/2/6
f 242/2/6 240/2/6 243/2/6
f 241/2/6 242/2/6 246/2/6
f 246/2/6 242/2/6 247/2/6
f 245/2/6 246/2/6 248/2/6
f 248/2/6 246/2/6 249/2/6
f 249/2/6 250/2/6 251/2/6
f 251/2/6 250/2/6 252/2/6
f 243/2/6 244/2/6 253/2/6
f 253/2/6 244/2/6 254/2/6
f 252/2/6 253/2/6 255/2/6
f 255/2/6 253/2/6 256/2/6
f 257/2/6 258/2/6 261/2/6
f 261/2/6 258/2/6 262/2/6
f 259/2/6 260/2/6 263/2/6
f 263/2/6 260/2/6 264/2/6
f 265/2/6 266/2/6 267/2/6
f 267/2/6 266/2/6 268/2/6
f 269/2/6 270/2/6 271/2/6
f 269/2/6 271/2/6 273/2/6
f 271/1/6 272/1/6 273/1/6
f 273/1/6 272/1/6 274/1/6
f 269/2/6 273/2/6 275/2/6
f 275/2/6 273/2/6 276/2/6
