# MagicaVoxel @ Ephtracy

# group
o 

# material
mtllib RLeg.mtl
usemtl palette

# normals
vn -1 0 0
vn 1 0 0
vn 0 0 1
vn 0 0 -1
vn 0 -1 0
vn 0 1 0

# texcoords
vt 0.564453 0.5
vt 0.982422 0.5

# verts
v 0 3.6 -1.4
v 0 3.6 -1.8
v 0 5.2 -1.4
v 0 5.2 -1.8
v 0 5.6 -1.4
v 0 5.6 -1.8
v 0 7.2 -1.4
v 0 7.2 -1.6
v 0 7.4 -1.6
v 0 7.4 -1.8
v 0.2 3.6 -1.8
v 0.2 3.6 -2
v 0.2 5.2 -1.6
v 0.2 5.2 -1.8
v 0.2 5.2 -2
v 0.2 5.4 -1.6
v 0.2 5.4 -1.8
v 0.2 5.6 -1.8
v 0.2 5.6 -2
v 0.2 7.4 -1.8
v 0.2 7.4 -2
v 0.4 5.2 -1.8
v 0.4 5.2 -2
v 0.4 5.4 -1.6
v 0.4 5.4 -1.8
v 0.4 5.4 -2
v 0.4 5.6 -1.6
v 0.4 5.6 -1.8
v 0.4 7.2 -1.5
v 0.4 7.2 -1.6
v 0.4 7.4 -1.6
v 0.4 7.4 -1.7
v 0.4 7.5 -1.5
v 0.4 7.5 -1.7
v 0.6 3.6 -1.8
v 0.6 3.6 -2
v 0.6 5.2 -1.6
v 0.6 5.2 -1.8
v 0.6 5.4 -1.6
v 0.6 5.4 -1.8
v 0.6 5.4 -2
v 0.6 5.6 -1.6
v 0.6 5.6 -1.8
v 0.6 5.6 -2
v 0.6 7.2 -1.5
v 0.6 7.2 -1.6
v 0.6 7.4 -1.6
v 0.6 7.4 -1.7
v 0.6 7.4 -1.8
v 0.6 7.4 -2
v 0.6 7.5 -1.5
v 0.6 7.5 -1.7
v 0.8 3.6 -1.4
v 0.8 3.6 -1.8
v 0.8 5.2 -1.4
v 0.8 5.2 -1.8
v 0.8 5.6 -1.4
v 0.8 5.6 -1.8
v 0.8 7.2 -1.4
v 0.8 7.2 -1.6
v 0.8 7.4 -1.6
v 0.8 7.4 -1.8
v 0 3.6 -1.4
v 0 5.2 -1.4
v 0 5.6 -1.4
v 0 7.2 -1.4
v 0.8 3.6 -1.4
v 0.8 5.2 -1.4
v 0.8 5.6 -1.4
v 0.8 7.2 -1.4
v 0.4 7.2 -1.5
v 0.4 7.5 -1.5
v 0.6 7.2 -1.5
v 0.6 7.5 -1.5
v 0 7.2 -1.6
v 0 7.4 -1.6
v 0.2 5.2 -1.6
v 0.2 5.4 -1.6
v 0.4 5.4 -1.6
v 0.4 5.6 -1.6
v 0.4 7.2 -1.6
v 0.4 7.4 -1.6
v 0.6 5.2 -1.6
v 0.6 5.4 -1.6
v 0.6 5.6 -1.6
v 0.6 7.2 -1.6
v 0.6 7.4 -1.6
v 0.8 7.2 -1.6
v 0.8 7.4 -1.6
v 0.4 7.4 -1.7
v 0.4 7.5 -1.7
v 0.6 7.4 -1.7
v 0.6 7.5 -1.7
v 0 3.6 -1.8
v 0 5.2 -1.8
v 0 5.6 -1.8
v 0 7.4 -1.8
v 0.2 3.6 -1.8
v 0.2 5.2 -1.8
v 0.2 5.4 -1.8
v 0.2 5.6 -1.8
v 0.2 7.4 -1.8
v 0.4 5.2 -1.8
v 0.4 5.4 -1.8
v 0.4 5.6 -1.8
v 0.6 3.6 -1.8
v 0.6 5.2 -1.8
v 0.6 5.4 -1.8
v 0.6 5.6 -1.8
v 0.6 7.4 -1.8
v 0.8 3.6 -1.8
v 0.8 5.2 -1.8
v 0.8 5.6 -1.8
v 0.8 7.4 -1.8
v 0.2 3.6 -2
v 0.2 5.2 -2
v 0.2 5.6 -2
v 0.2 7.4 -2
v 0.4 5.2 -2
v 0.4 5.4 -2
v 0.6 3.6 -2
v 0.6 5.4 -2
v 0.6 5.6 -2
v 0.6 7.4 -2
v 0 3.6 -1.4
v 0.8 3.6 -1.4
v 0 3.6 -1.8
v 0.2 3.6 -1.8
v 0.6 3.6 -1.8
v 0.8 3.6 -1.8
v 0.2 3.6 -2
v 0.6 3.6 -2
v 0 5.6 -1.4
v 0.8 5.6 -1.4
v 0.4 5.6 -1.6
v 0.6 5.6 -1.6
v 0 5.6 -1.8
v 0.2 5.6 -1.8
v 0.4 5.6 -1.8
v 0.6 5.6 -1.8
v 0.8 5.6 -1.8
v 0.2 5.6 -2
v 0.6 5.6 -2
v 0 5.2 -1.4
v 0.8 5.2 -1.4
v 0.2 5.2 -1.6
v 0.6 5.2 -1.6
v 0 5.2 -1.8
v 0.2 5.2 -1.8
v 0.4 5.2 -1.8
v 0.6 5.2 -1.8
v 0.8 5.2 -1.8
v 0.2 5.2 -2
v 0.4 5.2 -2
v 0.2 5.4 -1.6
v 0.4 5.4 -1.6
v 0.2 5.4 -1.8
v 0.4 5.4 -1.8
v 0.6 5.4 -1.8
v 0.4 5.4 -2
v 0.6 5.4 -2
v 0 7.2 -1.4
v 0.8 7.2 -1.4
v 0.4 7.2 -1.5
v 0.6 7.2 -1.5
v 0 7.2 -1.6
v 0.4 7.2 -1.6
v 0.6 7.2 -1.6
v 0.8 7.2 -1.6
v 0 7.4 -1.6
v 0.4 7.4 -1.6
v 0.6 7.4 -1.6
v 0.8 7.4 -1.6
v 0.4 7.4 -1.7
v 0.6 7.4 -1.7
v 0 7.4 -1.8
v 0.2 7.4 -1.8
v 0.6 7.4 -1.8
v 0.8 7.4 -1.8
v 0.2 7.4 -2
v 0.6 7.4 -2
v 0.4 7.5 -1.5
v 0.6 7.5 -1.5
v 0.4 7.5 -1.7
v 0.6 7.5 -1.7

# faces
f 3/2/1 2/2/1 1/2/1
f 4/2/1 2/2/1 3/2/1
f 7/2/1 6/2/1 5/2/1
f 8/2/1 6/2/1 7/2/1
f 9/2/1 6/2/1 8/2/1
f 10/2/1 6/2/1 9/2/1
f 14/2/1 12/2/1 11/2/1
f 15/2/1 12/2/1 14/2/1
f 16/2/1 14/2/1 13/2/1
f 17/2/1 14/2/1 16/2/1
f 20/2/1 19/2/1 18/2/1
f 21/2/1 19/2/1 20/2/1
f 25/2/1 23/2/1 22/2/1
f 26/2/1 23/2/1 25/2/1
f 27/1/1 25/1/1 24/1/1
f 28/1/1 25/1/1 27/1/1
f 31/1/1 30/1/1 29/1/1
f 33/1/1 31/1/1 29/1/1
f 33/1/1 32/1/1 31/1/1
f 34/1/1 32/1/1 33/1/1
f 35/2/2 36/2/2 38/2/2
f 37/2/2 38/2/2 39/2/2
f 38/2/2 36/2/2 40/2/2
f 39/2/2 38/2/2 40/2/2
f 40/2/2 36/2/2 41/2/2
f 39/1/2 40/1/2 42/1/2
f 42/1/2 40/1/2 43/1/2
f 45/1/2 46/1/2 47/1/2
f 43/2/2 44/2/2 49/2/2
f 49/2/2 44/2/2 50/2/2
f 47/1/2 48/1/2 51/1/2
f 45/1/2 47/1/2 51/1/2
f 51/1/2 48/1/2 52/1/2
f 53/2/2 54/2/2 55/2/2
f 55/2/2 54/2/2 56/2/2
f 57/2/2 58/2/2 59/2/2
f 59/2/2 58/2/2 60/2/2
f 60/2/2 58/2/2 61/2/2
f 61/2/2 58/2/2 62/2/2
f 67/2/3 64/2/3 63/2/3
f 68/2/3 64/2/3 67/2/3
f 69/2/3 66/2/3 65/2/3
f 70/2/3 66/2/3 69/2/3
f 73/1/3 72/1/3 71/1/3
f 74/1/3 72/1/3 73/1/3
f 79/2/3 78/2/3 77/2/3
f 81/2/3 76/2/3 75/2/3
f 82/2/3 76/2/3 81/2/3
f 83/2/3 79/2/3 77/2/3
f 84/1/3 80/1/3 79/1/3
f 84/2/3 79/2/3 83/2/3
f 85/1/3 80/1/3 84/1/3
f 88/2/3 87/2/3 86/2/3
f 89/2/3 87/2/3 88/2/3
f 90/1/4 91/1/4 92/1/4
f 92/1/4 91/1/4 93/1/4
f 94/2/4 95/2/4 98/2/4
f 98/2/4 95/2/4 99/2/4
f 96/2/4 97/2/4 101/2/4
f 101/2/4 97/2/4 102/2/4
f 99/2/4 100/2/4 103/2/4
f 103/2/4 100/2/4 104/2/4
f 104/1/4 105/1/4 108/1/4
f 108/1/4 105/1/4 109/1/4
f 106/2/4 107/2/4 111/2/4
f 111/2/4 107/2/4 112/2/4
f 109/2/4 110/2/4 113/2/4
f 113/2/4 110/2/4 114/2/4
f 115/2/4 116/2/4 119/2/4
f 115/2/4 119/2/4 121/2/4
f 119/2/4 120/2/4 121/2/4
f 121/2/4 120/2/4 122/2/4
f 117/2/4 118/2/4 123/2/4
f 123/2/4 118/2/4 124/2/4
f 127/2/5 126/2/5 125/2/5
f 128/2/5 126/2/5 127/2/5
f 129/2/5 126/2/5 128/2/5
f 130/2/5 126/2/5 129/2/5
f 131/2/5 129/2/5 128/2/5
f 132/2/5 129/2/5 131/2/5
f 135/2/5 134/2/5 133/2/5
f 136/2/5 134/2/5 135/2/5
f 137/2/5 135/2/5 133/2/5
f 138/2/5 135/2/5 137/2/5
f 139/2/5 135/2/5 138/2/5
f 140/2/5 134/2/5 136/2/5
f 141/2/5 134/2/5 140/2/5
f 142/2/5 139/2/5 138/2/5
f 142/2/5 140/2/5 139/2/5
f 143/2/5 140/2/5 142/2/5
f 144/2/6 145/2/6 146/2/6
f 146/2/6 145/2/6 147/2/6
f 144/2/6 146/2/6 148/2/6
f 148/2/6 146/2/6 149/2/6
f 147/2/6 145/2/6 151/2/6
f 151/2/6 145/2/6 152/2/6
f 149/2/6 150/2/6 153/2/6
f 153/2/6 150/2/6 154/2/6
f 155/2/6 156/2/6 157/2/6
f 157/2/6 156/2/6 158/2/6
f 158/2/6 159/2/6 160/2/6
f 160/2/6 159/2/6 161/2/6
f 162/2/6 163/2/6 164/2/6
f 164/2/6 163/2/6 165/2/6
f 162/2/6 164/2/6 166/2/6
f 166/2/6 164/2/6 167/2/6
f 165/2/6 163/2/6 168/2/6
f 168/2/6 163/2/6 169/2/6
f 170/2/6 171/2/6 174/2/6
f 172/2/6 173/2/6 175/2/6
f 170/2/6 174/2/6 176/2/6
f 174/2/6 175/2/6 176/2/6
f 176/2/6 175/2/6 177/2/6
f 175/2/6 173/2/6 178/2/6
f 177/2/6 175/2/6 178/2/6
f 178/2/6 173/2/6 179/2/6
f 177/2/6 178/2/6 180/2/6
f 180/2/6 178/2/6 181/2/6
f 182/1/6 183/1/6 184/1/6
f 184/1/6 183/1/6 185/1/6
